<?xml version="1.0" encoding="UTF-8"?>
<svg id="Layer_1" data-name="Layer 1" xmlns="http://www.w3.org/2000/svg" viewBox="0 0 811.1640624872 257.4364200768">
  <g>
    <path d="M250.2811126581,161.1000061035l11.7000274658-145.8000030518c0-1.8000068665-.8999938965-2.6999931335-2.700012207-2.6999931335L114.381126391,0c-1.7999725342,0-3.6000137329,0-4.5,1.8000068665L.9811379782,92.7000274658c-1.7999725342,1.7999725342-.8999862671,4.5.8999862671,4.5l55.7999708652,9.8999862671c6.2999725342-36,39.6000175476-63.8999862671,78.2999687195-61.2000274658,38.7000274658,1.7999725342,70.2000274658,35.1000137329,71.1000213623,73.7999725342.8999938965,41.3999862671-32.3999938965,76.4999923706-73.7999725342,76.4999923706v58.5c0,2.700012207,2.7000274658,3.6000061035,4.5,1.799987793l109.7999725342-90.8999938965c1.8000488281-.8999176025,2.7000274658-2.6999511719,2.7000274658-4.4999389648h0Z" style="fill: #eb001a; stroke-width: 0px;"/>
    <path d="M132.3811187616,176.3999938965c30.6000213623,0,54.8999786377-24.2999725342,54.8999786377-54.8999862671s-24.2999725342-54.8999862671-54.8999938965-54.8999862671-54.8999862671,24.2999725342-54.8999862671,54.8999862671,24.2999725342,54.8999862671,54.8999862671,54.8999862671h.0000152588Z" style="fill: #f58f8f; stroke-width: 0px;"/>
  </g>
  <g>
    <path d="M380.7695312372,175.037109375c-7.9047851562,0-14.9248046875-1.404296875-21.0600585938-4.2119140625-6.1372070312-2.8076171875-10.9467773438-6.810546875-14.4296875-12.01171875-3.4858398438-5.19921875-5.2797851562-11.388671875-5.3823242188-18.564453125h19.8120117188c.1025390625,3.6416015625.9873046875,6.890625,2.65234375,9.75,1.662109375,2.8623046875,4.0556640625,5.1240234375,7.17578125,6.7861328125,3.1201171875,1.6650390625,6.8642578125,2.49609375,11.2319335938,2.49609375,3.744140625,0,6.9931640625-.5966796875,9.75-1.7939453125,2.7543945312-1.1943359375,4.8603515625-2.91015625,6.318359375-5.1484375,1.455078125-2.234375,2.18359375-4.8603515625,2.18359375-7.8779296875,0-3.431640625-.7797851562-6.263671875-2.33984375-8.501953125-1.5600585938-2.2353515625-3.7197265625-4.1337890625-6.4741210938-5.693359375-2.7568359375-1.5600585938-5.9814453125-2.9375-9.671875-4.1342773438-3.6928710938-1.1943359375-7.5659179688-2.41796875-11.6220703125-3.666015625-8.6333007812-2.91015625-15.1586914062-6.654296875-19.578125-11.2319335938-4.4213867188-4.5751953125-6.6298828125-10.6591796875-6.6298828125-18.251953125,0-6.3422851562,1.533203125-11.8022460938,4.6020507812-16.3798828125,3.06640625-4.5751953125,7.33203125-8.1362304688,12.7919921875-10.6860351562,5.4599609375-2.5473632812,11.7783203125-3.8217773438,18.9541015625-3.8217773438,7.2783203125,0,13.6499023438,1.3012695312,19.1098632812,3.8999023438,5.4599609375,2.6005859375,9.7504882812,6.2153320312,12.8706054688,10.841796875,3.1201171875,4.62890625,4.73046875,10.1669921875,4.8359375,16.6142578125h-19.9682617188c0-2.703125-.677734375-5.2260742188-2.0283203125-7.56640625-1.3525390625-2.33984375-3.302734375-4.2631835938-5.849609375-5.7719726562-2.5498046875-1.5063476562-5.6430664062-2.26171875-9.2822265625-2.26171875-3.1201171875-.1025390625-5.9038085938.3901367188-8.3461914062,1.4819335938-2.4448242188,1.091796875-4.39453125,2.6518554688-5.849609375,4.6801757812-1.4580078125,2.0278320312-2.1840820312,4.55078125-2.1840820312,7.5659179688,0,2.9125976562.6752929688,5.3305664062,2.0278320312,7.25390625,1.3505859375,1.92578125,3.2758789062,3.5366210938,5.7719726562,4.8359375,2.49609375,1.3017578125,5.3818359375,2.5229492188,8.658203125,3.666015625,3.2758789062,1.1455078125,6.8881835938,2.3935546875,10.841796875,3.744140625,5.40625,1.76953125,10.3203125,3.9267578125,14.7421875,6.4741210938,4.4194335938,2.5493164062,7.9291992188,5.849609375,10.5297851562,9.9057617188,2.5986328125,4.0561523438,3.900390625,9.3081054688,3.900390625,15.7553710938,0,5.6162109375-1.4580078125,10.8427734375-4.3681640625,15.6787109375-2.9130859375,4.8359375-7.17578125,8.7353515625-12.7919921875,11.69921875-5.6162109375,2.96484375-12.5849609375,4.4462890625-20.904296875,4.4462890625Z" style="fill: #1e1c22; stroke-width: 0px;"/>
    <path d="M466.4111327997,175.037109375c-7.80078125,0-14.6640625-1.7158203125-20.591796875-5.1474609375-5.927734375-3.4326171875-10.556640625-8.21484375-13.8837890625-14.3525390625-3.330078125-6.134765625-4.9921875-13.2060546875-4.9921875-21.2158203125,0-8.2143554688,1.6376953125-15.4438476562,4.9140625-21.68359375,3.2763671875-6.240234375,7.9013671875-11.1274414062,13.8837890625-14.6640625,5.978515625-3.5346679688,12.921875-5.3041992188,20.826171875-5.3041992188,7.6953125,0,14.376953125,1.7163085938,20.044921875,5.1479492188,5.66796875,3.4321289062,10.087890625,8.009765625,13.26171875,13.7280273438,3.169921875,5.720703125,4.7578125,12.2216796875,4.7578125,19.4995117188v3.3544921875c0,1.1962890625-.10546875,2.5224609375-.3125,3.9775390625h-63.9609375v-12.0112304688h45.396484375c-.208984375-5.6162109375-2.1328125-10.0864257812-5.771484375-13.416015625-3.642578125-3.3271484375-8.166015625-4.9921875-13.572265625-4.9921875-3.849609375,0-7.384765625.884765625-10.607421875,2.6518554688-3.224609375,1.7700195312-5.7734375,4.3950195312-7.64453125,7.8779296875-1.873046875,3.4858398438-2.80859375,7.8784179688-2.80859375,13.181640625v4.5244140625c0,4.8896484375.91015625,9.0751953125,2.73046875,12.5576171875,1.818359375,3.486328125,4.2890625,6.162109375,7.41015625,8.0341796875,3.119140625,1.8720703125,6.70703125,2.80859375,10.763671875,2.80859375,4.369140625,0,7.98046875-.9365234375,10.841796875-2.80859375,2.859375-1.8720703125,4.9140625-4.314453125,6.162109375-7.33203125h19.033203125c-1.248046875,4.78515625-3.564453125,9.1259765625-6.943359375,13.0263671875-3.380859375,3.8994140625-7.513671875,6.96875-12.40234375,9.2041015625s-10.400390625,3.353515625-16.53515625,3.353515625Z" style="fill: #1e1c22; stroke-width: 0px;"/>
    <path d="M541.1347656122,175.037109375c-6.3447265625,0-11.67578125-1.091796875-15.990234375-3.275390625-4.31640625-2.1845703125-7.5146484375-5.0947265625-9.59375-8.736328125-2.08203125-3.6396484375-3.1201171875-7.64453125-3.1201171875-12.01171875,0-4.8876953125,1.2724609375-9.150390625,3.822265625-12.7919921875,2.546875-3.6396484375,6.3173828125-6.474609375,11.3095703125-8.501953125,4.9921875-2.0283203125,11.1787109375-3.0419921875,18.564453125-3.0419921875h19.8115234375c0-4.1586914062-.599609375-7.6171875-1.7939453125-10.3740234375-1.1962890625-2.7543945312-2.9912109375-4.8364257812-5.3818359375-6.240234375-2.3935546875-1.4038085938-5.513671875-2.1059570312-9.3603515625-2.1059570312-4.265625,0-7.904296875.9897460938-10.919921875,2.9638671875-3.017578125,1.9770507812-4.8896484375,4.9409179688-5.6162109375,8.8920898438h-18.4072265625c.6240234375-5.6157226562,2.51953125-10.4521484375,5.693359375-14.5078125,3.171875-4.0561523438,7.33203125-7.1762695312,12.48046875-9.3603515625,5.1474609375-2.18359375,10.7373046875-3.2758789062,16.76953125-3.2758789062,7.48828125,0,13.857421875,1.2749023438,19.1103515625,3.822265625,5.25,2.5493164062,9.2548828125,6.1616210938,12.01171875,10.841796875,2.7548828125,4.6801757812,4.1337890625,10.4008789062,4.1337890625,17.16015625v48.6713867188h-16.0673828125l-1.8720703125-12.4794921875c-1.041015625,2.0810546875-2.3671875,3.9775390625-3.978515625,5.693359375-1.61328125,1.716796875-3.4853515625,3.2255859375-5.615234375,4.5244140625-2.1328125,1.3017578125-4.5,2.3134765625-7.0986328125,3.0419921875-2.6005859375.7265625-5.564453125,1.091796875-8.8916015625,1.091796875ZM545.3466796747,160.216796875c3.0146484375,0,5.71875-.5458984375,8.1123046875-1.6376953125,2.390625-1.091796875,4.4189453125-2.6513671875,6.083984375-4.6796875,1.662109375-2.0283203125,2.98828125-4.314453125,3.9775390625-6.8642578125.9873046875-2.546875,1.5849609375-5.2255859375,1.7939453125-8.0341796875v-.3115234375h-17.16015625c-3.744140625,0-6.7861328125.4677734375-9.1259765625,1.404296875-2.33984375.935546875-4.0830078125,2.2099609375-5.2255859375,3.8212890625-1.1455078125,1.6142578125-1.7158203125,3.509765625-1.7158203125,5.6943359375,0,2.2890625.5458984375,4.2119140625,1.6376953125,5.771484375,1.091796875,1.560546875,2.65234375,2.7568359375,4.6796875,3.5888671875,2.0283203125.8330078125,4.341796875,1.2470703125,6.9423828125,1.2470703125Z" style="fill: #1e1c22; stroke-width: 0px;"/>
    <path d="M597.6054687372,173.1650390625v-78.6235351562h16.69140625l1.560546875,14.6640625c1.9736328125-3.4321289062,4.314453125-6.369140625,7.01953125-8.8139648438,2.703125-2.4423828125,5.9794921875-4.3413085938,9.828125-5.6938476562,3.8466796875-1.3505859375,8.1123046875-2.0283203125,12.7919921875-2.0283203125v19.65625h-6.7080078125c-3.1201171875,0-6.083984375.3896484375-8.8916015625,1.169921875-2.80859375.7797851562-5.2265625,2.0546875-7.25390625,3.8217773438-2.0283203125,1.76953125-3.5888671875,4.1611328125-4.6806640625,7.1762695312-1.091796875,3.017578125-1.6376953125,6.7075195312-1.6376953125,11.0756835938v37.595703125h-18.7197265625Z" style="fill: #1e1c22; stroke-width: 0px;"/>
    <path d="M687.9267577997,175.037109375c-7.80078125,0-14.7177734375-1.7421875-20.748046875-5.2255859375-6.033203125-3.4833984375-10.740234375-8.3193359375-14.1181640625-14.5078125-3.380859375-6.1865234375-5.0703125-13.2333984375-5.0703125-21.138671875,0-8.2138671875,1.689453125-15.443359375,5.0703125-21.68359375,3.3779296875-6.2397460938,8.0849609375-11.1000976562,14.1181640625-14.5859375,6.0302734375-3.4833984375,12.947265625-5.2260742188,20.748046875-5.2260742188,9.87890625,0,18.173828125,2.57421875,24.8818359375,7.7221679688s10.9443359375,12.1948242188,12.7138671875,21.1376953125h-19.65625c-1.041015625-4.0556640625-3.1982421875-7.2001953125-6.4736328125-9.4379882812-3.2763671875-2.2348632812-7.1513671875-3.3540039062-11.6220703125-3.3540039062-3.8486328125,0-7.359375.962890625-10.5302734375,2.8862304688-3.173828125,1.92578125-5.6689453125,4.7578125-7.48828125,8.501953125-1.8203125,3.744140625-2.7294921875,8.3217773438-2.7294921875,13.7280273438,0,3.953125.51953125,7.5146484375,1.5595703125,10.685546875,1.0390625,3.173828125,2.5205078125,5.826171875,4.4462890625,7.9560546875,1.9228515625,2.1328125,4.1337890625,3.7705078125,6.6298828125,4.9140625,2.49609375,1.1455078125,5.19921875,1.7158203125,8.1123046875,1.7158203125,2.91015625,0,5.6162109375-.5185546875,8.1123046875-1.5595703125,2.49609375-1.0380859375,4.6259765625-2.5205078125,6.3955078125-4.4462890625,1.767578125-1.9228515625,2.9638671875-4.236328125,3.587890625-6.94140625h19.65625c-1.8720703125,8.7353515625-6.162109375,15.7314453125-12.8701171875,20.9814453125-6.7080078125,5.2529296875-14.951171875,7.8779296875-24.7255859375,7.8779296875Z" style="fill: #1e1c22; stroke-width: 0px;"/>
    <path d="M736.7529296747,173.1650390625V60.845703125h18.7197265625v45.8637695312c2.49609375-4.2631835938,5.9794921875-7.6684570312,10.4521484375-10.2177734375,4.4697265625-2.5473632812,9.5673828125-3.822265625,15.2880859375-3.822265625,6.341796875,0,11.7509765625,1.326171875,16.2236328125,3.9780273438,4.470703125,2.6518554688,7.8779296875,6.5791015625,10.2177734375,11.7778320312,2.33984375,5.2016601562,3.509765625,11.59765625,3.509765625,19.1884765625v45.5512695312h-18.5634765625v-43.8354492188c0-6.7592773438-1.404296875-11.9340820312-4.2119140625-15.5219726562-2.80859375-3.587890625-7.125-5.3823242188-12.9482421875-5.3823242188-3.744140625,0-7.1513671875.9360351562-10.2177734375,2.8081054688-3.0693359375,1.8720703125-5.4599609375,4.5239257812-7.17578125,7.9560546875-1.716796875,3.4321289062-2.57421875,7.5415039062-2.57421875,12.32421875v41.6513671875h-18.7197265625Z" style="fill: #1e1c22; stroke-width: 0px;"/>
  </g>
</svg>